<svg width="265" height="83" viewBox="0 0 265 83" fill="none" xmlns="http://www.w3.org/2000/svg">
<rect width="83" height="83" rx="20" fill="#ECFFDA"/>
<g clip-path="url(#clip0_2_54)">
<path d="M56.7197 40.6592L42.5987 26.5381C41.6069 25.5464 40.2885 25 38.886 25H28C26.3454 25 25 26.3454 25 28V38.886C25 40.2886 25.5464 41.607 26.5381 42.5987L40.6592 56.7197C41.4729 57.5335 42.5994 58 43.75 58C44.9006 58 46.027 57.5335 46.8408 56.7197L56.7197 46.8408C57.5334 46.0271 57.9999 44.9006 57.9999 43.75C57.9999 42.5994 57.5335 41.4729 56.7197 40.6592ZM55.6592 45.7803L45.7803 55.6592C44.711 56.7285 42.7891 56.7285 41.7198 55.6592L27.5986 41.5381C26.8904 40.8298 26.5 39.8879 26.5 38.886V28C26.5 27.1732 27.1731 26.5 28 26.5H38.886C39.888 26.5 40.8299 26.8904 41.5381 27.5987L55.6592 41.7198C56.1939 42.2544 56.5 42.9942 56.5 43.75C56.5 44.5059 56.1939 45.2456 55.6592 45.7803Z" fill="#5FC400"/>
<path d="M31 28C29.3454 28 27.9999 29.3454 27.9999 31C27.9999 32.6546 29.3454 34 31 34C32.6545 34 34 32.6545 34 31C34 29.3454 32.6546 28 31 28ZM31 32.5C30.1731 32.5 29.5 31.8269 29.5 31C29.5 30.1731 30.1731 29.5 31 29.5C31.8268 29.5 32.4999 30.1731 32.4999 31C32.5 31.8269 31.8269 32.5 31 32.5Z" fill="#5FC400"/>
<path d="M37.9507 40.0726C38.8281 39.1952 38.8281 37.7677 37.9507 36.8903C37.6585 36.598 37.6585 36.1219 37.9507 35.8304L38.4824 35.2994C38.763 35.016 39.2574 35.016 39.5423 35.2994C39.6836 35.4415 39.762 35.6298 39.762 35.8297C39.762 36.0304 39.6844 36.2179 39.5423 36.3593C39.2493 36.6522 39.2493 37.1269 39.5416 37.4206C39.8346 37.7135 40.3099 37.7128 40.6029 37.4213C41.0277 36.9964 41.262 36.431 41.262 35.8297C41.262 35.2291 41.0277 34.6637 40.6029 34.2389C39.7533 33.3885 38.2693 33.3907 37.4212 34.2382L36.8894 34.7692C36.0135 35.6474 36.0135 37.0741 36.8902 37.9508C37.1824 38.2438 37.1824 38.7192 36.8902 39.0121L36.3592 39.5424C36.0772 39.8266 35.5842 39.8252 35.2993 39.5424C35.158 39.4003 35.0796 39.2121 35.0796 39.0121C35.0796 38.8115 35.1572 38.6232 35.2993 38.4826C35.5923 38.1896 35.5923 37.715 35.3 37.4213C35.007 37.1283 34.5317 37.1291 34.2387 37.4206C33.8139 37.8454 33.5796 38.4108 33.5796 39.0121C33.5796 39.6128 33.8139 40.1781 34.2387 40.603C34.6636 41.0278 35.229 41.2621 35.8296 41.2621C36.4309 41.2621 36.9963 41.0278 37.4204 40.603L37.9507 40.0726Z" fill="#5FC400"/>
<path d="M42.7239 42.7239C43.0169 42.4309 43.0169 41.9563 42.7239 41.6634L41.6634 40.6029L43.2542 39.012L44.8457 40.6029C45.1387 40.8959 45.6133 40.8959 45.9063 40.6029C46.1993 40.3099 46.1993 39.8353 45.9063 39.5423L43.7844 37.4212C43.4914 37.1282 43.0168 37.1282 42.7239 37.4212L37.4212 42.724C37.1282 43.017 37.1282 43.4916 37.4212 43.7845L39.5423 45.9063C39.6887 46.0528 39.8807 46.1261 40.0726 46.1261C40.2645 46.1261 40.4563 46.0528 40.6029 45.9063C40.8959 45.6133 40.8959 45.1387 40.6029 44.8458L39.012 43.2543L40.6029 41.6635L41.6634 42.724C41.8099 42.8704 42.0018 42.9437 42.1937 42.9437C42.3855 42.9436 42.5775 42.8704 42.7239 42.7239Z" fill="#5FC400"/>
<path d="M45.9062 42.7231C45.9062 42.7238 45.9062 42.7238 45.9062 42.7238L42.7231 45.9062C41.8478 46.7836 41.8478 48.2104 42.7238 49.0878C43.1625 49.5266 43.7389 49.7463 44.3146 49.7463C44.891 49.7463 45.4675 49.5266 45.9062 49.0878L49.0878 45.9062C49.9652 45.0287 49.9652 43.6013 49.0878 42.7231C48.2104 41.8472 46.7837 41.8472 45.9062 42.7231ZM48.0273 44.8457L44.8457 48.0274C44.5535 48.3196 44.0774 48.3211 43.7852 48.0274C43.4929 47.7351 43.4929 47.2591 43.7845 46.9668L46.9668 43.7852C47.2583 43.4922 47.7359 43.493 48.0273 43.7845C48.3196 44.0774 48.3196 44.5527 48.0273 44.8457Z" fill="#5FC400"/>
</g>
<path d="M103.472 37.626C102.632 37.626 101.876 37.482 101.204 37.194C100.532 36.894 100.004 36.474 99.62 35.934C99.236 35.394 99.044 34.764 99.044 34.044H101.24C101.288 34.584 101.498 35.028 101.87 35.376C102.254 35.724 102.788 35.898 103.472 35.898C104.18 35.898 104.732 35.73 105.128 35.394C105.524 35.046 105.722 34.602 105.722 34.062C105.722 33.642 105.596 33.3 105.344 33.036C105.104 32.772 104.798 32.568 104.426 32.424C104.066 32.28 103.562 32.124 102.914 31.956C102.098 31.74 101.432 31.524 100.916 31.308C100.412 31.08 99.98 30.732 99.62 30.264C99.26 29.796 99.08 29.172 99.08 28.392C99.08 27.672 99.26 27.042 99.62 26.502C99.98 25.962 100.484 25.548 101.132 25.26C101.78 24.972 102.53 24.828 103.382 24.828C104.594 24.828 105.584 25.134 106.352 25.746C107.132 26.346 107.564 27.174 107.648 28.23H105.38C105.344 27.774 105.128 27.384 104.732 27.06C104.336 26.736 103.814 26.574 103.166 26.574C102.578 26.574 102.098 26.724 101.726 27.024C101.354 27.324 101.168 27.756 101.168 28.32C101.168 28.704 101.282 29.022 101.51 29.274C101.75 29.514 102.05 29.706 102.41 29.85C102.77 29.994 103.262 30.15 103.886 30.318C104.714 30.546 105.386 30.774 105.902 31.002C106.43 31.23 106.874 31.584 107.234 32.064C107.606 32.532 107.792 33.162 107.792 33.954C107.792 34.59 107.618 35.19 107.27 35.754C106.934 36.318 106.436 36.774 105.776 37.122C105.128 37.458 104.36 37.626 103.472 37.626ZM112.265 26.646V30.318H116.585V31.992H112.265V35.826H117.125V37.5H110.213V24.972H117.125V26.646H112.265ZM125.359 37.626C124.195 37.626 123.121 37.356 122.137 36.816C121.165 36.264 120.391 35.502 119.815 34.53C119.251 33.546 118.969 32.442 118.969 31.218C118.969 29.994 119.251 28.896 119.815 27.924C120.391 26.952 121.165 26.196 122.137 25.656C123.121 25.104 124.195 24.828 125.359 24.828C126.535 24.828 127.609 25.104 128.581 25.656C129.565 26.196 130.339 26.952 130.903 27.924C131.467 28.896 131.749 29.994 131.749 31.218C131.749 32.442 131.467 33.546 130.903 34.53C130.339 35.502 129.565 36.264 128.581 36.816C127.609 37.356 126.535 37.626 125.359 37.626ZM125.359 35.844C126.187 35.844 126.925 35.658 127.573 35.286C128.221 34.902 128.725 34.362 129.085 33.666C129.457 32.958 129.643 32.142 129.643 31.218C129.643 30.294 129.457 29.484 129.085 28.788C128.725 28.092 128.221 27.558 127.573 27.186C126.925 26.814 126.187 26.628 125.359 26.628C124.531 26.628 123.793 26.814 123.145 27.186C122.497 27.558 121.987 28.092 121.615 28.788C121.255 29.484 121.075 30.294 121.075 31.218C121.075 32.142 121.255 32.958 121.615 33.666C121.987 34.362 122.497 34.902 123.145 35.286C123.793 35.658 124.531 35.844 125.359 35.844Z" fill="black"/>
<path d="M100.352 58.464H103.768V59.5H99.078V49.742H100.352V58.464ZM108.467 59.626C107.748 59.626 107.095 59.4627 106.507 59.136C105.928 58.8093 105.471 58.3473 105.135 57.75C104.808 57.1433 104.645 56.4433 104.645 55.65C104.645 54.866 104.813 54.1753 105.149 53.578C105.494 52.9713 105.961 52.5093 106.549 52.192C107.137 51.8653 107.795 51.702 108.523 51.702C109.251 51.702 109.909 51.8653 110.497 52.192C111.085 52.5093 111.547 52.9667 111.883 53.564C112.228 54.1613 112.401 54.8567 112.401 55.65C112.401 56.4433 112.224 57.1433 111.869 57.75C111.524 58.3473 111.052 58.8093 110.455 59.136C109.858 59.4627 109.195 59.626 108.467 59.626ZM108.467 58.506C108.924 58.506 109.354 58.3987 109.755 58.184C110.156 57.9693 110.478 57.6473 110.721 57.218C110.973 56.7887 111.099 56.266 111.099 55.65C111.099 55.034 110.978 54.5113 110.735 54.082C110.492 53.6527 110.175 53.3353 109.783 53.13C109.391 52.9153 108.966 52.808 108.509 52.808C108.042 52.808 107.613 52.9153 107.221 53.13C106.838 53.3353 106.53 53.6527 106.297 54.082C106.064 54.5113 105.947 55.034 105.947 55.65C105.947 56.2753 106.059 56.8027 106.283 57.232C106.516 57.6613 106.824 57.9833 107.207 58.198C107.59 58.4033 108.01 58.506 108.467 58.506ZM115.35 53.074C115.574 52.6353 115.891 52.2947 116.302 52.052C116.722 51.8093 117.231 51.688 117.828 51.688V53.004H117.492C116.064 53.004 115.35 53.7787 115.35 55.328V59.5H114.076V51.828H115.35V53.074ZM126.299 55.37C126.299 55.6127 126.285 55.8693 126.257 56.14H120.125C120.171 56.896 120.428 57.4887 120.895 57.918C121.371 58.338 121.945 58.548 122.617 58.548C123.167 58.548 123.625 58.422 123.989 58.17C124.362 57.9087 124.623 57.5633 124.773 57.134H126.145C125.939 57.8713 125.529 58.4733 124.913 58.94C124.297 59.3973 123.531 59.626 122.617 59.626C121.889 59.626 121.235 59.4627 120.657 59.136C120.087 58.8093 119.639 58.3473 119.313 57.75C118.986 57.1433 118.823 56.4433 118.823 55.65C118.823 54.8567 118.981 54.1613 119.299 53.564C119.616 52.9667 120.059 52.5093 120.629 52.192C121.207 51.8653 121.87 51.702 122.617 51.702C123.345 51.702 123.989 51.8607 124.549 52.178C125.109 52.4953 125.538 52.934 125.837 53.494C126.145 54.0447 126.299 54.67 126.299 55.37ZM124.983 55.104C124.983 54.6187 124.875 54.2033 124.661 53.858C124.446 53.5033 124.152 53.2373 123.779 53.06C123.415 52.8733 123.009 52.78 122.561 52.78C121.917 52.78 121.366 52.9853 120.909 53.396C120.461 53.8067 120.204 54.376 120.139 55.104H124.983ZM137.206 51.688C137.804 51.688 138.336 51.814 138.802 52.066C139.269 52.3087 139.638 52.6773 139.908 53.172C140.179 53.6667 140.314 54.2687 140.314 54.978V59.5H139.054V55.16C139.054 54.3947 138.863 53.8113 138.48 53.41C138.107 52.9993 137.598 52.794 136.954 52.794C136.292 52.794 135.764 53.0087 135.372 53.438C134.98 53.858 134.784 54.4693 134.784 55.272V59.5H133.524V55.16C133.524 54.3947 133.333 53.8113 132.95 53.41C132.577 52.9993 132.068 52.794 131.424 52.794C130.762 52.794 130.234 53.0087 129.842 53.438C129.45 53.858 129.254 54.4693 129.254 55.272V59.5H127.98V51.828H129.254V52.934C129.506 52.5327 129.842 52.2247 130.262 52.01C130.692 51.7953 131.163 51.688 131.676 51.688C132.32 51.688 132.89 51.8327 133.384 52.122C133.879 52.4113 134.248 52.836 134.49 53.396C134.705 52.8547 135.06 52.4347 135.554 52.136C136.049 51.8373 136.6 51.688 137.206 51.688ZM147.411 49.742V59.5H146.137V49.742H147.411ZM150.856 53.242C151.108 52.8033 151.481 52.4393 151.976 52.15C152.48 51.8513 153.063 51.702 153.726 51.702C154.407 51.702 155.023 51.8653 155.574 52.192C156.134 52.5187 156.573 52.9807 156.89 53.578C157.207 54.166 157.366 54.852 157.366 55.636C157.366 56.4107 157.207 57.1013 156.89 57.708C156.573 58.3147 156.134 58.786 155.574 59.122C155.023 59.458 154.407 59.626 153.726 59.626C153.073 59.626 152.494 59.4813 151.99 59.192C151.495 58.8933 151.117 58.5247 150.856 58.086V63.14H149.582V51.828H150.856V53.242ZM156.064 55.636C156.064 55.0573 155.947 54.5533 155.714 54.124C155.481 53.6947 155.163 53.368 154.762 53.144C154.37 52.92 153.936 52.808 153.46 52.808C152.993 52.808 152.559 52.9247 152.158 53.158C151.766 53.382 151.449 53.7133 151.206 54.152C150.973 54.5813 150.856 55.0807 150.856 55.65C150.856 56.2287 150.973 56.7373 151.206 57.176C151.449 57.6053 151.766 57.9367 152.158 58.17C152.559 58.394 152.993 58.506 153.46 58.506C153.936 58.506 154.37 58.394 154.762 58.17C155.163 57.9367 155.481 57.6053 155.714 57.176C155.947 56.7373 156.064 56.224 156.064 55.636ZM161.759 59.626C161.171 59.626 160.644 59.528 160.177 59.332C159.71 59.1267 159.342 58.8467 159.071 58.492C158.8 58.128 158.651 57.7127 158.623 57.246H159.939C159.976 57.6287 160.154 57.9413 160.471 58.184C160.798 58.4267 161.222 58.548 161.745 58.548C162.23 58.548 162.613 58.4407 162.893 58.226C163.173 58.0113 163.313 57.7407 163.313 57.414C163.313 57.078 163.164 56.8307 162.865 56.672C162.566 56.504 162.104 56.3407 161.479 56.182C160.91 56.0327 160.443 55.8833 160.079 55.734C159.724 55.5753 159.416 55.3467 159.155 55.048C158.903 54.74 158.777 54.3387 158.777 53.844C158.777 53.452 158.894 53.0927 159.127 52.766C159.36 52.4393 159.692 52.1827 160.121 51.996C160.55 51.8 161.04 51.702 161.591 51.702C162.44 51.702 163.126 51.9167 163.649 52.346C164.172 52.7753 164.452 53.3633 164.489 54.11H163.215C163.187 53.7087 163.024 53.3867 162.725 53.144C162.436 52.9013 162.044 52.78 161.549 52.78C161.092 52.78 160.728 52.878 160.457 53.074C160.186 53.27 160.051 53.5267 160.051 53.844C160.051 54.096 160.13 54.306 160.289 54.474C160.457 54.6327 160.662 54.7633 160.905 54.866C161.157 54.9593 161.502 55.0667 161.941 55.188C162.492 55.3373 162.94 55.4867 163.285 55.636C163.63 55.776 163.924 55.9907 164.167 56.28C164.419 56.5693 164.55 56.9473 164.559 57.414C164.559 57.834 164.442 58.212 164.209 58.548C163.976 58.884 163.644 59.15 163.215 59.346C162.795 59.5327 162.31 59.626 161.759 59.626ZM173.161 51.828V59.5H171.887V58.366C171.645 58.758 171.304 59.066 170.865 59.29C170.436 59.5047 169.96 59.612 169.437 59.612C168.84 59.612 168.303 59.4907 167.827 59.248C167.351 58.996 166.973 58.6227 166.693 58.128C166.423 57.6333 166.287 57.0313 166.287 56.322V51.828H167.547V56.154C167.547 56.91 167.739 57.4933 168.121 57.904C168.504 58.3053 169.027 58.506 169.689 58.506C170.371 58.506 170.907 58.296 171.299 57.876C171.691 57.456 171.887 56.8447 171.887 56.042V51.828H173.161ZM184.538 51.688C185.136 51.688 185.668 51.814 186.134 52.066C186.601 52.3087 186.97 52.6773 187.24 53.172C187.511 53.6667 187.646 54.2687 187.646 54.978V59.5H186.386V55.16C186.386 54.3947 186.195 53.8113 185.812 53.41C185.439 52.9993 184.93 52.794 184.286 52.794C183.624 52.794 183.096 53.0087 182.704 53.438C182.312 53.858 182.116 54.4693 182.116 55.272V59.5H180.856V55.16C180.856 54.3947 180.665 53.8113 180.282 53.41C179.909 52.9993 179.4 52.794 178.756 52.794C178.094 52.794 177.566 53.0087 177.174 53.438C176.782 53.858 176.586 54.4693 176.586 55.272V59.5H175.312V51.828H176.586V52.934C176.838 52.5327 177.174 52.2247 177.594 52.01C178.024 51.7953 178.495 51.688 179.008 51.688C179.652 51.688 180.222 51.8327 180.716 52.122C181.211 52.4113 181.58 52.836 181.822 53.396C182.037 52.8547 182.392 52.4347 182.886 52.136C183.381 51.8373 183.932 51.688 184.538 51.688ZM194.127 50.582C193.884 50.582 193.679 50.498 193.511 50.33C193.343 50.162 193.259 49.9567 193.259 49.714C193.259 49.4713 193.343 49.266 193.511 49.098C193.679 48.93 193.884 48.846 194.127 48.846C194.36 48.846 194.556 48.93 194.715 49.098C194.883 49.266 194.967 49.4713 194.967 49.714C194.967 49.9567 194.883 50.162 194.715 50.33C194.556 50.498 194.36 50.582 194.127 50.582ZM194.743 51.828V59.5H193.469V51.828H194.743ZM199.63 59.626C199.042 59.626 198.515 59.528 198.048 59.332C197.581 59.1267 197.213 58.8467 196.942 58.492C196.671 58.128 196.522 57.7127 196.494 57.246H197.81C197.847 57.6287 198.025 57.9413 198.342 58.184C198.669 58.4267 199.093 58.548 199.616 58.548C200.101 58.548 200.484 58.4407 200.764 58.226C201.044 58.0113 201.184 57.7407 201.184 57.414C201.184 57.078 201.035 56.8307 200.736 56.672C200.437 56.504 199.975 56.3407 199.35 56.182C198.781 56.0327 198.314 55.8833 197.95 55.734C197.595 55.5753 197.287 55.3467 197.026 55.048C196.774 54.74 196.648 54.3387 196.648 53.844C196.648 53.452 196.765 53.0927 196.998 52.766C197.231 52.4393 197.563 52.1827 197.992 51.996C198.421 51.8 198.911 51.702 199.462 51.702C200.311 51.702 200.997 51.9167 201.52 52.346C202.043 52.7753 202.323 53.3633 202.36 54.11H201.086C201.058 53.7087 200.895 53.3867 200.596 53.144C200.307 52.9013 199.915 52.78 199.42 52.78C198.963 52.78 198.599 52.878 198.328 53.074C198.057 53.27 197.922 53.5267 197.922 53.844C197.922 54.096 198.001 54.306 198.16 54.474C198.328 54.6327 198.533 54.7633 198.776 54.866C199.028 54.9593 199.373 55.0667 199.812 55.188C200.363 55.3373 200.811 55.4867 201.156 55.636C201.501 55.776 201.795 55.9907 202.038 56.28C202.29 56.5693 202.421 56.9473 202.43 57.414C202.43 57.834 202.313 58.212 202.08 58.548C201.847 58.884 201.515 59.15 201.086 59.346C200.666 59.5327 200.181 59.626 199.63 59.626ZM210.677 59.626C210.089 59.626 209.561 59.528 209.095 59.332C208.628 59.1267 208.259 58.8467 207.989 58.492C207.718 58.128 207.569 57.7127 207.541 57.246H208.857C208.894 57.6287 209.071 57.9413 209.389 58.184C209.715 58.4267 210.14 58.548 210.663 58.548C211.148 58.548 211.531 58.4407 211.811 58.226C212.091 58.0113 212.231 57.7407 212.231 57.414C212.231 57.078 212.081 56.8307 211.783 56.672C211.484 56.504 211.022 56.3407 210.397 56.182C209.827 56.0327 209.361 55.8833 208.997 55.734C208.642 55.5753 208.334 55.3467 208.073 55.048C207.821 54.74 207.695 54.3387 207.695 53.844C207.695 53.452 207.811 53.0927 208.045 52.766C208.278 52.4393 208.609 52.1827 209.039 51.996C209.468 51.8 209.958 51.702 210.509 51.702C211.358 51.702 212.044 51.9167 212.567 52.346C213.089 52.7753 213.369 53.3633 213.407 54.11H212.133C212.105 53.7087 211.941 53.3867 211.643 53.144C211.353 52.9013 210.961 52.78 210.467 52.78C210.009 52.78 209.645 52.878 209.375 53.074C209.104 53.27 208.969 53.5267 208.969 53.844C208.969 54.096 209.048 54.306 209.207 54.474C209.375 54.6327 209.58 54.7633 209.823 54.866C210.075 54.9593 210.42 55.0667 210.859 55.188C211.409 55.3373 211.857 55.4867 212.203 55.636C212.548 55.776 212.842 55.9907 213.085 56.28C213.337 56.5693 213.467 56.9473 213.477 57.414C213.477 57.834 213.36 58.212 213.127 58.548C212.893 58.884 212.562 59.15 212.133 59.346C211.713 59.5327 211.227 59.626 210.677 59.626ZM215.933 50.582C215.691 50.582 215.485 50.498 215.317 50.33C215.149 50.162 215.065 49.9567 215.065 49.714C215.065 49.4713 215.149 49.266 215.317 49.098C215.485 48.93 215.691 48.846 215.933 48.846C216.167 48.846 216.363 48.93 216.521 49.098C216.689 49.266 216.773 49.4713 216.773 49.714C216.773 49.9567 216.689 50.162 216.521 50.33C216.363 50.498 216.167 50.582 215.933 50.582ZM216.549 51.828V59.5H215.275V51.828H216.549ZM227.947 51.688C228.544 51.688 229.076 51.814 229.543 52.066C230.009 52.3087 230.378 52.6773 230.649 53.172C230.919 53.6667 231.055 54.2687 231.055 54.978V59.5H229.795V55.16C229.795 54.3947 229.603 53.8113 229.221 53.41C228.847 52.9993 228.339 52.794 227.695 52.794C227.032 52.794 226.505 53.0087 226.113 53.438C225.721 53.858 225.525 54.4693 225.525 55.272V59.5H224.265V55.16C224.265 54.3947 224.073 53.8113 223.691 53.41C223.317 52.9993 222.809 52.794 222.165 52.794C221.502 52.794 220.975 53.0087 220.583 53.438C220.191 53.858 219.995 54.4693 219.995 55.272V59.5H218.721V51.828H219.995V52.934C220.247 52.5327 220.583 52.2247 221.003 52.01C221.432 51.7953 221.903 51.688 222.417 51.688C223.061 51.688 223.63 51.8327 224.125 52.122C224.619 52.4113 224.988 52.836 225.231 53.396C225.445 52.8547 225.8 52.4347 226.295 52.136C226.789 51.8373 227.34 51.688 227.947 51.688ZM234.418 53.242C234.67 52.8033 235.044 52.4393 235.538 52.15C236.042 51.8513 236.626 51.702 237.288 51.702C237.97 51.702 238.586 51.8653 239.136 52.192C239.696 52.5187 240.135 52.9807 240.452 53.578C240.77 54.166 240.928 54.852 240.928 55.636C240.928 56.4107 240.77 57.1013 240.452 57.708C240.135 58.3147 239.696 58.786 239.136 59.122C238.586 59.458 237.97 59.626 237.288 59.626C236.635 59.626 236.056 59.4813 235.552 59.192C235.058 58.8933 234.68 58.5247 234.418 58.086V63.14H233.144V51.828H234.418V53.242ZM239.626 55.636C239.626 55.0573 239.51 54.5533 239.276 54.124C239.043 53.6947 238.726 53.368 238.324 53.144C237.932 52.92 237.498 52.808 237.022 52.808C236.556 52.808 236.122 52.9247 235.72 53.158C235.328 53.382 235.011 53.7133 234.768 54.152C234.535 54.5813 234.418 55.0807 234.418 55.65C234.418 56.2287 234.535 56.7373 234.768 57.176C235.011 57.6053 235.328 57.9367 235.72 58.17C236.122 58.394 236.556 58.506 237.022 58.506C237.498 58.506 237.932 58.394 238.324 58.17C238.726 57.9367 239.043 57.6053 239.276 57.176C239.51 56.7373 239.626 56.224 239.626 55.636ZM243.879 49.14V59.5H242.605V49.14H243.879ZM252.659 51.828L248.039 63.112H246.723L248.235 59.416L245.141 51.828H246.555L248.963 58.044L251.343 51.828H252.659Z" fill="#969696"/>
<defs>
<clipPath id="clip0_2_54">
<rect width="33" height="33" fill="white" transform="translate(25 25)"/>
</clipPath>
</defs>
</svg>
